<svg width="512" height="512" viewBox="0 0 512 512" fill="none" xmlns="http://www.w3.org/2000/svg">
<path d="M475.6 384.1C469.7 394.3 458.9 400 447.9 400C442.412 400 436.86 398.594 431.77 395.625L406.68 380.985L412.059 401.275C415.452 414.085 407.803 427.245 394.979 430.615C392.915 431.177 390.85 431.427 388.815 431.427C378.185 431.427 368.455 424.333 365.605 413.587L347.865 346.668L288 311.7L288 382.2L336.38 431.08C345.718 440.518 345.624 455.7 336.193 465.02C331.5 469.7 325.4 472 319.3 472C313.107 472 306.91 469.625 302.22 464.875L288 450.505V480C288 497.69 273.66 512 255.97 512C238.28 512 223.94 497.69 223.94 480L223.94 450.5L209.72 464.87C200.398 474.308 185.19 474.37 175.75 465.057C166.318 455.745 166.225 440.557 175.562 431.117L223.942 382.237L223.1 311.7L163.23 346.63L145.49 413.55C142.642 424.3 132.91 431.39 122.28 431.39C120.245 431.39 118.18 431.14 116.116 430.578C103.296 427.203 95.646 414.047 99.036 401.237L104.415 380.948L79.325 395.587C75.11 398.6 69.56 400 64.07 400C53.06 400 42.33 394.312 36.38 384.12C27.448 368.87 32.595 349.28 47.88 340.37L73.84 325.22L53.51 319.712C40.7 316.3 33.15 303.1 36.62 290.3C40.09 277.5 53.23 270 66.09 273.4L132 291.3L192.5 256L132 220.7L66.09 238.6C63.979 239.163 61.865 239.444 59.785 239.444C49.215 239.444 39.515 232.413 36.625 221.724C33.15 208.9 40.7 195.8 53.51 192.3L73.84 186.792L47.88 171.6C32.6 162.694 27.45 143.1 36.38 127.85C45.265 112.57 64.88 107.41 80.19 116.35L105.28 130.99L99.9 110.7C96.51 97.91 104.2 84.75 116.1 81.38C129.9 77.91 142.1 85.63 146.4 98.41L164.14 165.33L223.1 200.3L223.1 129.8L175.6 80.88C166.3 71.44 166.3 56.25 175.8 46.94C185.2 37.59 200.4 37.72 209.8 47.13L224.02 61.5L223.1 32C223.1 14.31 237.44 0 255.13 0C272.82 0 287.16 14.31 287.16 32L287.16 61.5L301.38 47.13C310.687 37.724 325.89 37.599 335.35 46.9425C344.782 56.2545 344.875 71.4425 335.538 80.8825L287.158 129.762L288 200.3L347.87 165.37L365.61 98.45C369.005 85.67 382.17 77.95 394.99 81.42C407.81 84.795 415.46 97.95 412.07 110.76L406.691 131.05L431.781 116.41C447.061 107.504 466.691 112.66 475.591 127.91C484.523 143.16 479.376 162.75 464.091 171.66L438.131 186.81L458.461 192.318C471.271 195.787 478.831 208.978 475.351 221.758C472.456 232.448 462.761 239.478 452.191 239.478C450.111 239.478 447.998 239.197 445.886 238.634L379.1 220.7L319.5 256L379.96 291.28L445.91 273.41C458.8 270 471.9 277.5 475.4 290.3C478.873 303.08 471.318 316.27 458.51 319.74L438.18 325.248L464.14 340.398C479.4 349.3 484.5 368.9 475.6 384.1Z" fill="#2F8AB1"/>
</svg>
